<?xml version="1.0" encoding="UTF-8"?>
<svg id="Vrstva_1" xmlns="http://www.w3.org/2000/svg" version="1.1" viewBox="0 0 800 200">
  <!-- Generator: Adobe Illustrator 29.2.1, SVG Export Plug-In . SVG Version: 2.1.0 Build 116)  -->
  <g>
    <path d="M202.8,161c-13.5,0-24.5-4.1-33-12.4-8.5-8.3-12.7-19.3-12.7-33.1v-2.4c0-9.3,1.8-17.5,5.4-24.8,3.6-7.3,8.6-12.9,15.2-16.9,6.6-3.9,14-5.9,22.4-5.9,12.6,0,22.5,4,29.8,11.9,7.2,7.9,10.9,19.2,10.9,33.8v10h-58.7c.8,6,3.2,10.8,7.2,14.5,4,3.6,9.1,5.4,15.2,5.4,9.5,0,16.9-3.4,22.2-10.3l12.1,13.5c-3.7,5.2-8.7,9.3-15,12.2s-13.3,4.4-20.9,4.4ZM200,85.3c-4.9,0-8.8,1.7-11.9,5-3,3.3-5,8-5.8,14.2h34.2v-2c-.1-5.5-1.6-9.7-4.4-12.7-2.8-3-6.9-4.5-12.1-4.5Z"/>
    <path d="M277.8,67.2l.8,10.3c6.5-8,15.4-12,26.5-12s20,4.7,24.4,14.1c6.5-9.4,15.7-14.1,27.7-14.1s17.4,2.9,22.3,8.7c4.9,5.8,7.3,14.6,7.3,26.3v58.8h-24.7v-58.8c0-5.2-1-9-3.1-11.5-2-2.4-5.6-3.6-10.8-3.6-7.4,0-12.5,3.5-15.3,10.6v63.3c0,0-24.5,0-24.5,0v-58.7c0-5.3-1.1-9.2-3.2-11.6-2.1-2.4-5.7-3.6-10.7-3.6s-12,2.9-15.2,8.7v65.1h-24.6v-92.1h23.1Z"/>
    <path d="M401.9,112.4c0-9.1,1.8-17.3,5.3-24.4,3.5-7.2,8.6-12.7,15.2-16.6,6.6-3.9,14.3-5.9,23-5.9,12.4,0,22.6,3.8,30.4,11.4,7.9,7.6,12.2,17.9,13.2,31l.2,6.3c0,14.1-3.9,25.5-11.8,34-7.9,8.5-18.5,12.8-31.8,12.8s-23.9-4.3-31.8-12.8-11.9-20.1-11.9-34.7v-1.1ZM426.5,114.1c0,8.8,1.6,15.5,4.9,20.1,3.3,4.6,8,7,14.1,7s10.6-2.3,14-6.9c3.3-4.6,5-11.9,5-22s-1.7-15.2-5-20c-3.4-4.7-8.1-7.1-14.1-7.1s-10.7,2.3-14,7c-3.3,4.7-4.9,12-4.9,21.8Z"/>
    <path d="M567.7,43.3c0-3.7,1.2-6.7,3.7-9.1s5.8-3.6,10.1-3.6,7.5,1.2,10,3.6c2.5,2.4,3.7,5.4,3.7,9.1s-1.3,6.8-3.8,9.2c-2.5,2.4-5.9,3.6-10,3.6s-7.5-1.2-10-3.6c-2.5-2.4-3.8-5.4-3.8-9.2ZM593.9,159.3h-24.7v-92.1h24.7v92.1Z"/>
    <path d="M667.5,159.3c-1.1-2.2-2-5-2.5-8.3-6,6.6-13.7,10-23.2,10s-16.5-2.6-22.4-7.8c-5.9-5.2-8.9-11.8-8.9-19.8s3.6-17.3,10.9-22.5c7.2-5.2,17.7-7.9,31.4-7.9h11.3v-5.3c0-4.3-1.1-7.7-3.3-10.2-2.2-2.6-5.6-3.8-10.3-3.8s-7.4,1-9.8,3c-2.4,2-3.5,4.7-3.5,8.2h-24.6c0-5.3,1.6-10.3,4.9-14.8,3.3-4.5,7.9-8.1,14-10.7,6-2.6,12.8-3.9,20.3-3.9,11.4,0,20.4,2.9,27,8.6,6.7,5.7,10,13.7,10,24.1v39.9c0,8.7,1.3,15.4,3.7,19.8v1.4h-24.9ZM647.2,142.2c3.6,0,7-.8,10-2.4s5.3-3.8,6.8-6.5v-15.8h-9.2c-12.3,0-18.9,4.3-19.7,12.8v1.4c0,3.1,1,5.6,3.2,7.6,2.2,2,5.1,3,8.9,3Z"/>
    <path d="M730.3,67.2l.8,10.6c6.6-8.2,15.4-12.3,26.5-12.3s17,2.9,21.8,8.6c4.8,5.7,7.2,14.3,7.3,25.7v59.5h-24.6v-58.9c0-5.2-1.1-9-3.4-11.4-2.3-2.4-6-3.5-11.3-3.5s-12.1,3-15.6,8.9v65h-24.6v-92.1h23.2Z"/>
  </g>
  <g>
    <path d="M114.4,118.8c3.4-3,7.9-4.8,12.8-4.8s9.1,1.7,12.5,4.5V35.3h-33.6l-31.7,89.9-31.8-89.9H9.3v124h25.5v-33.9l-2.6-58.4,33.4,92.3h17.5l33.5-92.4-2.3,51.9Z"/>
    <path d="M127.2,153c-5.1,0-9.7-1.9-13.1-5.1v11.4h25.6v-10.9c-3.4,2.8-7.7,4.5-12.5,4.5Z"/>
  </g>
  <g>
    <path d="M517.3,153c-5.3,0-10.1-2.6-13-6.6v12.9h24.6v-11.2c-2.9,3-7,4.9-11.6,4.9Z"/>
    <path d="M548.7,65.5c-8.7,0-15.6,4.2-20.5,12.7l-.7-11h-23.2v60.1c2.9-4,7.7-6.6,13-6.6s8.6,1.9,11.6,4.9v-26.5c2.9-6.3,9-9.5,18.3-9.5s5.5.2,8.9.7l.3-23.7c-2.4-.7-4.9-1.1-7.7-1.1Z"/>
  </g>
</svg>